<svg xmlns="http://www.w3.org/2000/svg" xmlns:xlink="http://www.w3.org/1999/xlink" id="Layer_1" x="0" y="0" enable-background="new 0 0 12.4 14.7" version="1.1" viewBox="0 0 12.4 14.7" xml:space="preserve"><g><path fill="#FFF" d="M2,2h5.9L6.3,0.4c0,0-0.1,0-0.1-0.1L6.1,0.2c0,0-0.1-0.1-0.2-0.1C5.8,0.1,5.8,0,5.7,0H4.5h-4 C0.3,0,0.2,0.1,0.1,0.2C0,0.3,0,0.4,0,0.6v10.3c0,0.1,0,0.2,0,0.2c0,0.1,0.1,0.1,0.1,0.2c0.1,0.1,0.2,0.1,0.2,0.2 c0,0.1,0.1,0,0.2,0h1.4V2H2z"/><g><path fill="#FFF" d="M3.2,3.9c0-0.2,0.1-0.3,0.2-0.4c0.1-0.1,0.2-0.2,0.4-0.2h4v4.6h4.6v6.3c0,0.1,0,0.2,0,0.2 c0,0.1-0.1,0.1-0.1,0.2c-0.1,0.1-0.1,0.1-0.2,0.1s-0.1,0-0.2,0h-8c-0.1,0-0.2,0-0.2,0c-0.1,0-0.1-0.1-0.2-0.1 c-0.1-0.1-0.1-0.1-0.1-0.2s0-0.1,0-0.2V3.9H3.2z M9,6.7V3.3c0.1,0,0.1,0.1,0.2,0.1c0,0,0.1,0,0.1,0.1l0.1,0.1l0.1,0.1L12,6.2 l0.1,0.1c0.1,0,0.1,0,0.1,0.1c0,0,0.1,0.1,0.1,0.2c0,0.1,0.1,0.1,0.1,0.2H9V6.7z"/></g></g></svg>