<svg xmlns="http://www.w3.org/2000/svg" xmlns:xlink="http://www.w3.org/1999/xlink" id="Layer_1" width="24" height="24" x="0" y="0" enable-background="new 0 0 24 24" version="1.1" viewBox="0 0 24 24" xml:space="preserve"><g><g><path fill="#666" d="M12,5.133c0.315,0,0.57,0.256,0.57,0.57v13.145c0,0.315-0.255,0.57-0.57,0.57s-0.57-0.255-0.57-0.57V5.704 C11.43,5.389,11.686,5.133,12,5.133z"/></g><g><path fill="#666" d="M12.001,4.583L12.001,4.583c0.151,0,0.296,0.061,0.403,0.167l5.992,5.994 c0.222,0.223,0.222,0.584-0.001,0.807c-0.223,0.222-0.583,0.222-0.806,0l-5.588-5.59l-5.59,5.59c-0.223,0.223-0.584,0.222-0.807,0 c-0.223-0.223-0.223-0.584,0-0.807l5.993-5.994C11.705,4.643,11.85,4.583,12.001,4.583z"/></g></g></svg>