<svg xmlns="http://www.w3.org/2000/svg" xmlns:xlink="http://www.w3.org/1999/xlink" id="Layer_1" width="24" height="24" x="0" y="0" enable-background="new 8 8 24 24" version="1.1" viewBox="8 8 24 24" xml:space="preserve"><g><g><g><circle cx="20" cy="20" r="11" fill="#FF3939"/></g></g></g><g><g><path fill="#FFF" d="M24.716,25.466c-0.192,0-0.384-0.073-0.53-0.22l-9.432-9.431c-0.293-0.293-0.293-0.768,0-1.061 s0.768-0.293,1.061,0l9.432,9.432c0.293,0.293,0.293,0.768,0,1.061C25.1,25.393,24.908,25.466,24.716,25.466z"/></g><g><path fill="#FFF" d="M15.284,25.466c-0.192,0-0.384-0.073-0.53-0.22c-0.293-0.293-0.293-0.768,0-1.061l9.432-9.432 c0.293-0.293,0.769-0.293,1.062,0s0.293,0.768,0,1.061l-9.432,9.431C15.668,25.393,15.476,25.466,15.284,25.466z"/></g></g></svg>