<svg xmlns="http://www.w3.org/2000/svg" xmlns:xlink="http://www.w3.org/1999/xlink" id="Layer_1" width="160" height="160" x="0" y="0" enable-background="new 0 0 160 160" version="1.1" viewBox="0 0 160 160" xml:space="preserve"><g><rect width="160" height="159.997" y=".001" fill="#B1B5BB"/><g><polygon fill="#FFF" points="137.539 70.508 22.467 70.508 44.491 45.037 115.509 45.037"/><path fill="#FFF" d="M22.467,78.366v36.491h115.072V78.366H22.467z M38.964,103.555c-3.799,0-6.881-3.086-6.881-6.895 c0-3.803,3.083-6.875,6.881-6.875c3.805,0,6.885,3.072,6.885,6.875C45.849,100.469,42.769,103.555,38.964,103.555z M60.305,103.555c-3.802,0-6.885-3.086-6.885-6.895c0-3.803,3.083-6.875,6.885-6.875c3.799,0,6.881,3.072,6.881,6.875 C67.186,100.469,64.104,103.555,60.305,103.555z"/></g></g></svg>