<svg xmlns="http://www.w3.org/2000/svg" xmlns:xlink="http://www.w3.org/1999/xlink" id="Layer_1" width="24" height="24" x="0" y="0" enable-background="new 0 0 24 24" version="1.1" viewBox="0 0 24 24" xml:space="preserve"><g><g><path fill="#666" fill-rule="evenodd" d="M17.021,19.463H6.189c-0.971,0-1.76-0.789-1.76-1.76V7.443 c0-0.971,0.789-1.76,1.76-1.76h8.395c0.324,0,0.587,0.264,0.587,0.586c0,0.324-0.263,0.588-0.587,0.588H6.189 c-0.325,0-0.587,0.264-0.587,0.586v10.26c0,0.324,0.262,0.588,0.587,0.588h10.832c0.324,0,0.587-0.264,0.587-0.588V9.129 c0-0.324,0.262-0.586,0.586-0.586c0.325,0,0.586,0.262,0.586,0.586v8.574C18.78,18.674,17.992,19.463,17.021,19.463L17.021,19.463 L17.021,19.463z M13.941,10.762c-0.149,0-0.3-0.057-0.414-0.172c-0.23-0.229-0.23-0.6,0-0.83l5.041-5.051 c0.229-0.229,0.602-0.229,0.83,0c0.229,0.23,0.229,0.6,0,0.83l-5.042,5.051C14.242,10.705,14.092,10.762,13.941,10.762 L13.941,10.762L13.941,10.762z M11.063,11.383H7.545c-0.323,0-0.585-0.262-0.585-0.586s0.262-0.588,0.585-0.588h3.519 c0.325,0,0.588,0.264,0.588,0.588S11.389,11.383,11.063,11.383L11.063,11.383L11.063,11.383z M15.723,14.902H7.545 c-0.323,0-0.585-0.262-0.585-0.586s0.262-0.588,0.585-0.588h8.178c0.323,0,0.587,0.264,0.587,0.588S16.046,14.902,15.723,14.902 L15.723,14.902L15.723,14.902z" clip-rule="evenodd"/></g></g></svg>