<svg xmlns="http://www.w3.org/2000/svg" xmlns:xlink="http://www.w3.org/1999/xlink" id="Layer_1" x="0" y="0" version="1.1" viewBox="0 1.3 30 30" xml:space="preserve" style="enable-background:new 0 1.3 30 30"><g><path fill="#FFF" d="M14.2,1.3l-0.7,2.3l-1.3,3.8l-0.6,1.9l-0.5,1.7L7.5,22.1c-0.1,0.2,0,0.4,0.3,0.4h3.3c0.1,0,0.2,0,0.2,0.1 c0.1,0.1,0.1,0.2,0,0.3L7.9,31c-0.1,0.2,0,0.3,0.1,0.1L18.8,19c0.2-0.2,0.1-0.3-0.1-0.3h-3.5h-0.7c-0.2,0-0.3-0.2-0.2-0.4l3.4-5.9 l0.8-1.4l0.9-1.7l2-3.4l1.1-2C20,2.5,17.2,1.6,14.2,1.3z"/></g></svg>